<?xml version="1.0" encoding="UTF-8" standalone="no"?>
<svg
   xmlns:dc="http://purl.org/dc/elements/1.1/"
   xmlns:cc="http://creativecommons.org/ns#"
   xmlns:rdf="http://www.w3.org/1999/02/22-rdf-syntax-ns#"
   xmlns:svg="http://www.w3.org/2000/svg"
   xmlns="http://www.w3.org/2000/svg"
   xmlns:sodipodi="http://sodipodi.sourceforge.net/DTD/sodipodi-0.dtd"
   xmlns:inkscape="http://www.inkscape.org/namespaces/inkscape"
   inkscape:version="1.0 (4035a4f, 2020-05-01)"
   sodipodi:docname="carousel-arrow.svg"
   id="svg5401"
   version="1.1"
   fill="none"
   viewBox="0 0 24 24"
   height="37"
   width="44">
  <metadata
     id="metadata5407">
    <rdf:RDF>
      <cc:Work
         rdf:about="">
        <dc:format>image/svg+xml</dc:format>
        <dc:type
           rdf:resource="http://purl.org/dc/dcmitype/StillImage" />
        <dc:title></dc:title>
      </cc:Work>
    </rdf:RDF>
  </metadata>
  <defs
     id="defs5405" />
  <sodipodi:namedview
     inkscape:current-layer="svg5401"
     inkscape:window-maximized="1"
     inkscape:window-y="29"
     inkscape:window-x="0"
     inkscape:cy="12"
     inkscape:cx="12"
     inkscape:zoom="22.125"
     showgrid="false"
     id="namedview5403"
     inkscape:window-height="702"
     inkscape:window-width="1366"
     inkscape:pageshadow="2"
     inkscape:pageopacity="0"
     guidetolerance="10"
     gridtolerance="10"
     objecttolerance="10"
     borderopacity="1"
     bordercolor="#666666"
     pagecolor="#ffffff" />
  <path
     style="fill:#4458dc;fill-opacity:1"
     id="path5399"
     fill="#3EE7CD"
     d="M7.11003 16.7571C7.24128 16.9052 7.30691 17.1021 7.29378 17.3009C7.28066 17.4977 7.18877 17.6834 7.03877 17.8146C6.89065 17.9459 6.69378 18.0115 6.49503 17.9984C6.29816 17.9852 6.11253 17.8934 5.98128 17.7434L0.298159 11.2502L22.9519 11.2502C23.1506 11.2502 23.3419 11.329 23.4825 11.4696C23.6232 11.6102 23.7019 11.8015 23.7019 12.0002C23.7019 12.199 23.6232 12.3902 23.4825 12.5309C23.3419 12.6715 23.1506 12.7502 22.9519 12.7502L3.60565 12.7502L7.11003 16.7571Z" />
</svg>
